<svg xmlns="http://www.w3.org/2000/svg" viewBox="0 0 900 358" width="900" height="358" role="img" aria-labelledby="t d">
  <title id="t">One planned day, showing opening hours, travel and visits</title>
  <desc id="d">09:12 to 10:12, Mercat de la Boqueria. 10:43 to 11:28, Santa Maria del Mar. 12:30 to 13:20, Federal Café (meal). 13:49 to 14:49, Palau de la Música Catalana. 15:12 to 16:42, Gothic Quarter. 17:11 to 19:11, Barceloneta Beach. 19:44 to 20:34, Quimet &amp; Quimet (meal)</desc>
  <style>
  :root {
    --surface: #fcfcfb;
    --ink: #0b0b0b;
    --ink-2: #52514e;
    --ink-3: #8a887f;
    --grid: #e6e5e0;
    --band: #eceae4;
    --s1: #2a78d6;
    --s2: #eb6834;
    --s3: #1baf7a;
    --ramp-1: #dbe8f8;
    --ramp-2: #a9c8ee;
    --ramp-3: #6ba1e0;
    --ramp-4: #2a78d6;
  }
  @media (prefers-color-scheme: dark) {
    :root {
    --surface: #1a1a19;
    --ink: #ffffff;
    --ink-2: #c3c2b7;
    --ink-3: #8a887f;
    --grid: #2e2e2b;
    --band: #262623;
    --s1: #3987e5;
    --s2: #d95926;
    --s3: #199e70;
    --ramp-1: #1e2a38;
    --ramp-2: #26456b;
    --ramp-3: #2c639f;
    --ramp-4: #3987e5;
    }
  }
  text { font-family: system-ui, -apple-system, 'Segoe UI', Roboto, 'Helvetica Neue', sans-serif; fill: var(--ink); }
  .t-dim { fill: var(--ink-2); }
  .t-faint { fill: var(--ink-3); }
  .t-num { font-variant-numeric: tabular-nums; }
  .rule { stroke: var(--grid); stroke-width: 1; }
  </style>
  <rect width="900" height="358" fill="var(--surface)"/>
  <text x="24" y="30" font-size="16" font-weight="650">A single day, as the scheduler sees it</text>
  <text x="24" y="50" font-size="11.5" class="t-dim">2026-05-12 in Barcelona · 1h 51m of travel · EUR 150</text>
  <line x1="214" y1="62" x2="214" y2="316" class="rule"/>
  <text x="214" y="332" font-size="10" text-anchor="middle" class="t-faint">09:00</text>
  <line x1="264.92" y1="62" x2="264.92" y2="316" class="rule"/>
  <text x="264.92" y="332" font-size="10" text-anchor="middle" class="t-faint">10:00</text>
  <line x1="315.85" y1="62" x2="315.85" y2="316" class="rule"/>
  <line x1="366.77" y1="62" x2="366.77" y2="316" class="rule"/>
  <text x="366.77" y="332" font-size="10" text-anchor="middle" class="t-faint">12:00</text>
  <line x1="417.69" y1="62" x2="417.69" y2="316" class="rule"/>
  <line x1="468.62" y1="62" x2="468.62" y2="316" class="rule"/>
  <text x="468.62" y="332" font-size="10" text-anchor="middle" class="t-faint">14:00</text>
  <line x1="519.54" y1="62" x2="519.54" y2="316" class="rule"/>
  <line x1="570.46" y1="62" x2="570.46" y2="316" class="rule"/>
  <text x="570.46" y="332" font-size="10" text-anchor="middle" class="t-faint">16:00</text>
  <line x1="621.38" y1="62" x2="621.38" y2="316" class="rule"/>
  <line x1="672.31" y1="62" x2="672.31" y2="316" class="rule"/>
  <text x="672.31" y="332" font-size="10" text-anchor="middle" class="t-faint">18:00</text>
  <line x1="723.23" y1="62" x2="723.23" y2="316" class="rule"/>
  <line x1="774.15" y1="62" x2="774.15" y2="316" class="rule"/>
  <text x="774.15" y="332" font-size="10" text-anchor="middle" class="t-faint">20:00</text>
  <line x1="825.08" y1="62" x2="825.08" y2="316" class="rule"/>
  <line x1="876" y1="62" x2="876" y2="316" class="rule"/>
  <text x="876" y="332" font-size="10" text-anchor="middle" class="t-faint">22:00</text>
  <rect x="214" y="80" width="585.62" height="18" rx="3" fill="var(--band)"/>
  <line x1="214" y1="89" x2="224.18" y2="89" stroke="var(--ink-3)" stroke-width="1.5" opacity="0.55"/>
  <circle cx="214" cy="89" r="2" fill="var(--ink-3)"/>
  <rect x="224.18" y="81" width="50.92" height="16" rx="4" fill="var(--s1)"/>
  <text x="202" y="93" font-size="11.5" font-weight="400" text-anchor="end">Mercat de la Boqueria</text>
  <text x="283.11" y="93" font-size="10" class="t-faint">09:12–10:12</text>
  <rect x="264.92" y="114" width="152.77" height="18" rx="3" fill="var(--band)"/>
  <rect x="621.38" y="114" width="152.77" height="18" rx="3" fill="var(--band)"/>
  <line x1="287.84" y1="123" x2="301.42" y2="123" stroke="var(--ink-3)" stroke-width="1.5" opacity="0.55"/>
  <circle cx="287.84" cy="123" r="2" fill="var(--ink-3)"/>
  <rect x="301.42" y="115" width="38.19" height="16" rx="4" fill="var(--s1)"/>
  <text x="202" y="127" font-size="11.5" font-weight="400" text-anchor="end">Santa Maria del Mar</text>
  <text x="347.61" y="127" font-size="10" class="t-faint">10:43–11:28</text>
  <rect x="214" y="148" width="432.85" height="18" rx="3" fill="var(--band)"/>
  <line x1="379.5" y1="157" x2="392.23" y2="157" stroke="var(--ink-3)" stroke-width="1.5" opacity="0.55"/>
  <circle cx="379.5" cy="157" r="2" fill="var(--ink-3)"/>
  <rect x="392.23" y="149" width="42.44" height="16" rx="4" fill="var(--s2)"/>
  <text x="202" y="161" font-size="11.5" font-weight="500" text-anchor="end">Federal Café</text>
  <text x="442.67" y="161" font-size="10" class="t-faint">12:30–13:20</text>
  <rect x="264.92" y="182" width="280.08" height="18" rx="3" fill="var(--band)"/>
  <line x1="447.4" y1="191" x2="459.28" y2="191" stroke="var(--ink-3)" stroke-width="1.5" opacity="0.55"/>
  <circle cx="447.4" cy="191" r="2" fill="var(--ink-3)"/>
  <rect x="459.28" y="183" width="50.92" height="16" rx="4" fill="var(--s1)"/>
  <text x="202" y="195" font-size="11.5" font-weight="400" text-anchor="end">Palau de la Música Catalana</text>
  <text x="518.2" y="195" font-size="10" class="t-faint">13:49–14:49</text>
  <rect x="214" y="216" width="662" height="18" rx="3" fill="var(--band)"/>
  <line x1="522.93" y1="225" x2="529.72" y2="225" stroke="var(--ink-3)" stroke-width="1.5" opacity="0.55"/>
  <circle cx="522.93" cy="225" r="2" fill="var(--ink-3)"/>
  <rect x="529.72" y="217" width="76.38" height="16" rx="4" fill="var(--s1)"/>
  <text x="202" y="229" font-size="11.5" font-weight="400" text-anchor="end">Gothic Quarter</text>
  <text x="614.11" y="229" font-size="10" class="t-faint">15:12–16:42</text>
  <rect x="214" y="250" width="662" height="18" rx="3" fill="var(--band)"/>
  <line x1="618.84" y1="259" x2="630.72" y2="259" stroke="var(--ink-3)" stroke-width="1.5" opacity="0.55"/>
  <circle cx="618.84" cy="259" r="2" fill="var(--ink-3)"/>
  <rect x="630.72" y="251" width="101.85" height="16" rx="4" fill="var(--s1)"/>
  <text x="202" y="263" font-size="11.5" font-weight="400" text-anchor="end">Barceloneta Beach</text>
  <text x="740.57" y="263" font-size="10" class="t-faint">17:11–19:11</text>
  <rect x="366.77" y="284" width="203.69" height="18" rx="3" fill="var(--band)"/>
  <rect x="723.23" y="284" width="152.77" height="18" rx="3" fill="var(--band)"/>
  <line x1="745.3" y1="293" x2="760.57" y2="293" stroke="var(--ink-3)" stroke-width="1.5" opacity="0.55"/>
  <circle cx="745.3" cy="293" r="2" fill="var(--ink-3)"/>
  <rect x="760.57" y="285" width="42.44" height="16" rx="4" fill="var(--s2)"/>
  <text x="202" y="297" font-size="11.5" font-weight="500" text-anchor="end">Quimet &amp; Quimet</text>
  <text x="811.01" y="297" font-size="10" class="t-faint">19:44–20:34</text>
  <rect x="24" y="337.18" width="9" height="9" rx="2" fill="var(--band)"/>
  <text x="38" y="344" font-size="11" class="t-dim">open today</text>
  <rect x="121.6" y="337.18" width="9" height="9" rx="2" fill="var(--s1)"/>
  <text x="135.6" y="344" font-size="11" class="t-dim">visit</text>
  <rect x="188.4" y="337.18" width="9" height="9" rx="2" fill="var(--s2)"/>
  <text x="202.4" y="344" font-size="11" class="t-dim">meal</text>
  <rect x="249.04" y="337.18" width="9" height="9" rx="2" fill="var(--ink-3)"/>
  <text x="263.04" y="344" font-size="11" class="t-dim">travel</text>
</svg>
